<?xml version="1.0" standalone="no"?>
<!DOCTYPE svg PUBLIC "-//W3C//DTD SVG 20010904//EN"
 "http://www.w3.org/TR/2001/REC-SVG-20010904/DTD/svg10.dtd">
<svg version="1.0" xmlns="http://www.w3.org/2000/svg"
 width="608.000000pt" height="311.000000pt" viewBox="0 0 608.000000 311.000000"
 preserveAspectRatio="xMidYMid meet">
<metadata>
Created by potrace 1.16, written by Peter Selinger 2001-2019
</metadata>
<g transform="translate(0.000000,311.000000) scale(0.100000,-0.100000)"
fill="#000000" stroke="none">
<path d="M0 1555 l0 -1555 3040 0 3040 0 0 1555 0 1555 -3040 0 -3040 0 0
-1555z m4300 1015 l0 -100 35 0 35 0 0 -90 0 -90 40 0 c43 0 45 -3 41 -67 -3
-33 -2 -33 43 -33 l46 0 0 -145 0 -146 113 3 112 3 3 233 2 232 185 0 185 0 0
-130 0 -130 110 0 110 0 0 -61 c0 -40 4 -58 11 -54 17 11 81 -4 73 -17 -4 -7
-3 -8 5 -4 14 9 53 -3 46 -14 -3 -5 3 -15 13 -22 11 -8 19 -28 20 -52 2 -22 6
-44 9 -49 4 -7 -1 -8 -12 -3 -14 5 -15 3 -8 -6 15 -19 6 -82 -18 -123 -12 -19
-18 -35 -15 -35 3 0 12 12 20 28 l15 27 2 -27 c1 -16 3 -32 4 -38 1 -5 3 -15
4 -21 0 -5 6 -7 11 -4 6 3 10 -1 10 -10 0 -9 12 -27 26 -40 15 -14 22 -25 15
-25 -6 0 -11 -5 -11 -11 0 -5 5 -7 10 -4 14 9 12 -8 -2 -24 -8 -9 -9 -12 -1
-7 8 4 8 -3 1 -29 -6 -19 -14 -32 -18 -30 -4 2 -7 -11 -7 -30 0 -19 5 -35 10
-35 5 0 7 -9 4 -20 -3 -11 -2 -18 2 -15 4 2 18 -10 31 -27 12 -17 18 -28 12
-24 -6 3 -14 2 -17 -4 -4 -6 -3 -10 2 -9 30 5 45 -2 40 -21 -3 -11 -2 -18 3
-15 13 8 31 -21 23 -40 -4 -12 -3 -16 5 -11 7 4 10 -10 7 -48 -3 -61 -20 -100
-40 -92 -9 3 -12 0 -9 -8 3 -7 -2 -19 -11 -26 -19 -16 -19 -29 1 -51 21 -24
22 -81 1 -113 -26 -39 -58 -55 -113 -58 -49 -3 -49 -3 -52 29 -2 24 7 47 38
93 46 67 42 83 -5 17 l-30 -42 -5 210 c-5 204 -6 206 -8 65 l-3 -145 -31 68
c-17 37 -34 67 -39 67 -4 0 10 -39 31 -86 38 -81 40 -92 40 -180 l0 -94 -45 0
-45 0 0 -61 0 -62 -65 5 c-60 5 -65 4 -65 -14 0 -11 5 -28 10 -39 12 -22 7
-24 -21 -9 -12 7 -19 21 -19 40 0 25 -4 30 -25 30 -29 0 -33 -24 -9 -58 11
-17 12 -22 2 -22 -24 0 -40 17 -47 51 -6 32 -9 34 -54 37 l-47 3 0 148 c0 81
-3 151 -7 154 -3 4 -16 -2 -28 -13 -36 -34 -103 -36 -167 -6 -30 14 -63 26
-74 26 -56 0 -106 68 -83 112 8 15 5 18 -16 18 -25 0 -25 -1 -25 -85 l0 -85
88 0 87 0 0 -90 0 -90 -61 0 c-181 0 -294 110 -294 285 0 56 2 64 16 58 11 -4
22 1 30 12 12 17 11 22 -12 46 l-26 27 21 40 c43 84 113 129 216 139 61 5 65
8 65 30 0 39 60 93 103 93 20 0 38 4 41 9 11 17 -58 33 -166 38 -179 9 -295
-26 -391 -118 -47 -45 -53 -48 -91 -43 -55 7 -111 -26 -153 -90 -44 -64 -44
-108 -2 -147 30 -28 31 -33 26 -79 -5 -39 -3 -51 10 -58 13 -8 14 -19 4 -81
-6 -40 -20 -89 -32 -109 l-20 -37 8 35 c4 19 8 74 8 121 0 78 -3 90 -30 135
-57 92 -154 134 -312 134 l-73 0 0 75 0 75 198 0 197 0 0 85 c0 83 -1 85 -24
85 -18 0 -22 4 -16 18 15 34 11 66 -11 77 -20 10 -20 13 -7 30 18 25 10 68
-22 117 -36 54 -74 71 -143 62 -92 -11 -130 -40 -152 -119 -11 -39 -10 -48 4
-69 20 -31 20 -36 1 -36 -17 0 -37 -34 -33 -58 3 -15 -9 -17 -99 -20 l-103 -3
0 -39 c0 -22 -2 -40 -3 -40 -2 0 -18 7 -35 16 -23 11 -36 12 -51 5 -22 -12
-65 -96 -57 -109 3 -5 -3 -19 -13 -31 -15 -17 -17 -29 -11 -51 4 -16 5 -32 2
-36 -4 -4 2 -4 13 0 11 4 16 4 12 0 -4 -4 0 -15 9 -25 9 -10 17 -29 18 -43 0
-14 3 -27 6 -27 22 -6 51 -5 55 2 6 9 45 3 58 -10 5 -5 4 -11 -2 -15 -6 -4
-11 -4 -11 1 0 4 -23 8 -51 8 l-51 0 -33 -70 c-62 -130 -77 -167 -82 -204 -2
-20 -18 -70 -34 -112 l-30 -76 -52 -7 c-29 -3 -65 -6 -81 -6 l-28 0 4 71 c2
39 2 66 0 60 -2 -6 -8 -9 -13 -5 -5 3 -9 0 -9 -5 0 -6 -10 -11 -22 -11 -19 0
-20 2 -8 10 13 8 13 10 -2 10 -17 0 -19 15 -4 39 6 10 5 12 -2 7 -22 -13 -12
11 15 38 14 15 32 25 39 22 22 -8 28 16 9 31 -11 7 -13 13 -7 13 7 0 12 6 12
14 0 7 7 19 15 26 8 7 15 17 15 22 0 6 -9 0 -20 -13 -10 -13 -19 -20 -20 -15
0 5 -14 -12 -31 -37 -17 -26 -32 -47 -34 -47 -2 0 -3 86 -4 190 0 114 4 190 9
190 19 0 10 16 -10 17 -19 2 -20 -5 -20 -125 -1 -119 -2 -125 -16 -99 -8 15
-12 33 -8 39 4 7 3 8 -4 4 -7 -4 -14 3 -18 19 -3 14 -12 25 -20 25 -10 0 -11
-6 -4 -26 6 -14 7 -31 3 -37 -3 -7 -2 -8 2 -4 5 4 22 -20 37 -54 24 -53 28
-74 28 -153 l0 -92 -36 -2 c-27 -2 -34 0 -28 10 5 8 1 8 -11 -2 -17 -14 -17
-13 -10 10 l8 25 -23 -20 c-13 -11 -20 -14 -16 -7 4 6 2 13 -3 13 -6 1 -16 2
-23 3 -6 0 -13 8 -15 16 -4 13 -3 13 6 0 12 -17 14 -10 5 14 -3 9 -9 14 -13
11 -15 -9 -5 61 14 92 20 35 39 35 30 0 -5 -19 -5 -20 5 -5 8 13 8 24 -1 39
-6 12 -9 37 -6 56 3 18 2 31 -2 29 -4 -3 -7 17 -7 44 0 29 4 46 10 43 5 -4 7
1 3 11 -4 10 -1 19 8 22 8 4 12 10 9 15 -3 5 0 9 6 9 6 0 9 4 5 10 -3 5 0 18
7 30 10 16 10 24 0 41 -17 27 -6 59 21 59 16 0 18 3 8 9 -9 6 -10 10 -2 16 7
4 19 1 27 -6 12 -10 13 -9 8 5 -7 18 4 20 55 10 17 -4 31 -13 31 -20 0 -8 5
-14 10 -14 6 0 9 3 9 8 -1 4 -1 168 0 365 l1 357 190 0 190 0 0 58 0 59 178
66 c98 37 181 67 185 67 10 0 3 -367 -7 -396 -6 -17 -3 -22 13 -27 12 -3 18
-1 15 4 -8 13 22 22 50 15 15 -4 26 -14 28 -29 3 -20 9 -22 81 -25 l77 -3 0
146 0 145 45 0 45 0 0 50 0 50 40 0 40 0 0 90 0 90 38 0 37 0 -2 100 c-2 94
-1 100 17 100 19 0 20 -7 20 -100z m-2981 -285 c14 -58 13 -57 45 -60 14 -2
29 -6 35 -9 5 -4 16 2 23 11 14 19 48 27 48 11 0 -5 5 -6 10 -3 6 3 10 19 10
36 0 16 5 29 10 29 5 0 9 3 9 8 -1 4 -1 14 0 22 1 13 2 13 11 0 9 -13 11 -13
20 0 9 13 12 12 25 -4 11 -14 12 -23 4 -33 -7 -7 -8 -25 -5 -40 19 -80 23
-103 14 -103 -5 0 -12 -8 -15 -17 -4 -10 -14 -23 -22 -30 -14 -11 -14 -12 2
-13 9 0 17 5 17 10 0 6 7 10 15 10 18 0 19 -12 3 -28 -17 -17 17 -27 48 -14
40 19 30 49 -15 43 -7 -2 -10 3 -6 9 4 6 12 9 18 7 17 -6 49 12 41 24 -3 6 2
9 12 7 15 -2 18 2 16 21 -2 17 2 22 13 17 10 -4 19 2 25 17 8 21 9 21 9 -5 1
-14 -5 -28 -11 -31 -9 -2 -4 -12 13 -27 l25 -23 -29 -31 c-29 -32 -51 -75 -43
-84 3 -3 10 7 16 22 5 15 15 24 20 21 6 -4 7 -11 4 -17 -4 -6 1 -8 12 -6 15 3
18 11 16 39 -2 25 3 40 16 52 17 15 20 16 25 3 3 -8 -1 -17 -10 -20 -11 -5
-14 -15 -9 -41 5 -23 3 -35 -4 -35 -6 0 -9 -8 -6 -17 17 -59 18 -73 3 -73 -8
0 -28 -7 -43 -15 -17 -9 -30 -11 -32 -5 -2 6 -15 10 -28 10 -18 0 -24 -5 -24
-21 0 -11 4 -17 10 -14 6 3 7 -1 4 -10 -4 -10 -1 -15 12 -13 11 0 38 0 62 0
40 -2 43 -4 36 -24 -6 -22 -6 -22 19 -5 34 22 37 22 37 -8 0 -18 5 -25 20 -25
11 0 23 -7 26 -15 8 -21 68 -19 85 2 10 11 10 14 2 9 -20 -11 -16 0 19 49 25
36 36 44 52 39 28 -9 29 -10 22 -31 -6 -15 -8 -15 -16 -3 -7 12 -12 12 -21 3
-10 -10 -7 -17 13 -35 14 -13 28 -31 31 -40 4 -10 14 -19 24 -19 10 -1 23 -2
28 -4 6 -1 15 -3 20 -4 6 -1 3 -6 -5 -11 -13 -9 -12 -12 4 -25 18 -14 16 -16
-27 -34 -45 -19 -65 -51 -32 -51 8 0 15 -6 15 -14 0 -8 5 -18 12 -22 6 -4 8
-3 4 4 -4 7 10 9 46 7 29 -2 65 -4 80 -4 20 -1 26 -5 22 -16 -4 -8 -1 -15 5
-15 17 0 13 -30 -4 -36 -23 -9 -92 6 -75 16 9 6 5 12 -18 24 -29 15 -30 15
-25 -5 6 -20 5 -21 -18 -7 -28 17 -65 17 -96 0 -13 -7 -23 -8 -23 -3 0 5 6 12
13 14 7 3 5 6 -5 6 -10 1 -18 6 -18 11 0 6 -13 10 -29 10 -17 0 -33 -4 -36
-10 -8 -13 -35 -13 -35 1 0 6 9 13 20 16 24 6 25 12 5 40 -9 12 -14 27 -13 34
2 8 -10 13 -32 13 -27 1 -37 -4 -45 -21 -5 -13 -16 -23 -24 -23 -11 0 -11 3
-1 15 18 21 9 19 -28 -8 -24 -18 -29 -26 -20 -35 6 -6 9 -15 5 -19 -4 -4 -13
-1 -19 5 -21 21 -30 13 -26 -23 2 -19 2 -35 -2 -35 -3 0 -16 18 -30 40 -29 48
-44 51 -35 8 l6 -33 -21 28 c-26 33 -48 35 -59 4 -5 -13 -16 -29 -25 -36 -9
-7 -16 -20 -16 -27 0 -19 -20 -18 -21 1 -1 8 -3 20 -4 25 -1 6 -3 15 -4 22 0
6 -4 8 -8 4 -13 -13 -12 -41 3 -64 8 -12 12 -27 9 -33 -4 -5 -1 -17 7 -26 11
-14 11 -16 -3 -11 -12 5 -15 1 -11 -18 3 -17 13 -25 38 -30 29 -5 32 -9 24
-24 -15 -29 -12 -33 18 -27 15 3 34 2 42 -4 11 -6 6 -9 -17 -9 -29 0 -33 -3
-33 -26 0 -16 -5 -24 -12 -22 -7 3 -18 -1 -25 -8 -15 -14 -54 -7 -66 13 -5 7
-13 11 -18 7 -5 -3 -9 -2 -8 3 3 19 -2 34 -10 28 -5 -3 -12 -1 -15 4 -7 11 32
26 41 17 12 -11 31 15 26 34 -3 11 -8 20 -12 20 -4 0 -15 18 -24 39 -13 29
-22 38 -36 34 -17 -4 -18 0 -13 42 5 46 4 47 -17 34 -11 -8 -22 -17 -22 -21
-1 -5 -2 -14 -3 -20 0 -7 -6 -13 -13 -13 -22 0 -25 -14 -4 -27 26 -16 27 -34
2 -34 -11 0 -17 4 -15 8 3 4 2 13 -2 19 -10 16 -25 -12 -18 -33 3 -11 0 -18
-8 -18 -7 0 -19 -9 -26 -20 -7 -11 -23 -20 -37 -20 -14 0 -29 -8 -35 -21 -19
-35 -23 -12 -6 31 16 40 14 60 -4 60 -5 0 -9 -16 -8 -36 1 -21 -4 -39 -13 -45
-25 -16 -27 -10 -12 33 8 24 12 56 9 73 -6 30 -6 30 12 9 20 -26 46 -19 49 14
2 19 -1 21 -22 16 -17 -4 -25 -2 -25 7 -1 18 -28 54 -35 47 -3 -3 1 -13 10
-22 15 -15 15 -16 -3 -16 -17 0 -19 -6 -17 -35 2 -19 0 -35 -5 -35 -4 0 -7 18
-6 40 1 22 1 40 0 40 -1 0 -9 3 -18 6 -11 4 -16 1 -16 -10 0 -9 -4 -16 -10
-16 -5 0 -10 -7 -10 -15 0 -18 17 -20 23 -2 2 6 8 9 13 4 4 -4 -2 -14 -14 -23
-23 -16 -29 -53 -13 -69 6 -6 1 -18 -14 -31 -13 -12 -26 -20 -29 -17 -2 3 -16
-3 -30 -13 -36 -23 -40 -14 -11 20 28 33 33 45 10 26 -9 -7 -15 -8 -15 -2 0 6
14 22 31 36 19 16 29 32 25 41 -7 19 -20 19 -36 0 -7 -8 -24 -15 -39 -15 -14
-1 -37 -7 -51 -15 -36 -20 -38 -19 -46 20 -9 48 6 61 72 70 44 5 57 11 61 26
3 10 12 19 19 19 8 0 14 5 14 11 0 7 -9 9 -22 5 -13 -4 -38 -9 -55 -13 -18 -3
-33 -11 -33 -17 0 -6 -4 -5 -9 3 -7 11 -17 9 -56 -13 -50 -27 -76 -27 -37 0
18 12 20 19 12 35 -12 21 -7 24 20 9 13 -7 21 -6 30 4 6 8 29 17 51 21 45 8
57 21 37 42 -20 20 -152 34 -176 19 -4 -2 -14 -1 -22 4 -14 9 -60 -7 -60 -21
0 -5 -7 -6 -16 -2 -23 9 -35 49 -28 94 7 44 22 49 70 24 16 -8 48 -15 71 -15
23 0 45 -4 48 -10 3 -5 15 -10 26 -10 11 0 17 5 14 10 -3 6 0 12 7 14 75 21
98 31 98 42 0 14 -27 21 -95 23 -27 1 -55 7 -61 12 -19 16 -2 63 25 67 24 4
91 -24 90 -36 -3 -19 2 -25 11 -12 9 13 11 13 20 0 8 -12 10 -11 10 6 0 13
-13 28 -40 43 -22 12 -40 27 -40 33 0 6 -7 20 -17 30 -20 23 -11 33 16 18 12
-6 21 -7 20 -3 -3 20 3 21 36 7 43 -17 55 -18 55 -1 0 26 -138 124 -184 131
-12 2 -21 8 -21 14 0 6 -3 13 -6 17 -11 10 19 62 47 79 24 17 25 16 39 -18 8
-20 15 -39 15 -44 0 -5 11 -19 24 -31 17 -16 31 -21 45 -16 14 4 21 2 21 -7 0
-20 60 -74 90 -83 l25 -7 -22 17 c-23 16 -31 45 -13 45 6 0 10 -7 10 -15 0 -8
7 -15 15 -15 8 0 15 -5 15 -11 0 -5 4 -8 9 -4 13 7 6 62 -10 81 -6 8 -18 14
-25 14 -8 0 -14 5 -14 10 0 6 3 10 8 10 10 0 32 50 32 71 0 10 -4 21 -10 24
-20 12 -9 25 20 25 30 0 40 -13 20 -25 -15 -9 -2 -25 21 -25 11 0 19 -7 19
-17 1 -16 2 -15 12 2 25 42 48 56 48 29 0 -10 5 -14 15 -10 12 4 14 0 9 -22
-8 -34 -7 -33 -35 -36 -28 -3 -37 -21 -11 -21 10 0 16 -7 14 -18 -2 -11 2 -15
12 -11 8 3 17 1 21 -5 8 -14 35 -14 35 -1 0 5 -10 19 -22 31 -16 15 -19 23
-10 26 17 6 15 69 -3 97 -9 13 -13 31 -9 40 9 23 18 10 33 -49z m771 -276 c0
-6 9 -8 21 -4 27 9 23 -2 -20 -54 -36 -44 -56 -53 -46 -21 10 31 -14 24 -33
-10 -9 -16 -22 -30 -29 -30 -7 0 -17 -9 -23 -20 -6 -11 -16 -20 -22 -20 -7 0
0 13 15 28 27 28 27 29 9 45 -10 9 -23 17 -29 17 -20 0 -40 -36 -36 -67 3 -40
-3 -41 -29 -8 -11 14 -26 25 -34 25 -8 0 -14 7 -14 15 0 8 6 12 14 9 8 -3 16
3 19 15 3 14 11 18 26 14 12 -3 21 -1 21 4 0 6 23 13 52 16 29 4 60 15 72 25
31 29 66 40 66 21z m1448 -746 c-10 -2 -18 -9 -18 -14 0 -6 10 -8 23 -4 12 3
18 3 12 -2 -5 -4 -10 -37 -11 -73 0 -36 -4 -74 -8 -85 -7 -19 -3 -20 122 -20
125 0 130 -1 165 -28 46 -35 56 -80 33 -140 -25 -63 -55 -80 -150 -85 -67 -3
-92 0 -146 20 -71 26 -69 22 -56 116 7 47 6 52 -11 52 -22 0 -25 36 -5 49 13
8 31 82 32 127 0 35 -14 45 -45 33 -11 -4 -29 -8 -40 -8 -11 1 -3 6 18 12 22
7 35 16 31 20 -5 4 -1 5 7 2 11 -4 18 1 22 14 3 12 13 21 24 20 16 -1 16 -2 1
-6z m-136 -545 c-2 -5 -35 -8 -73 -8 -68 0 -70 1 -63 23 3 12 14 33 23 47 19
29 63 116 88 175 l18 40 5 -135 c3 -74 4 -138 2 -142z"/>
<path d="M4180 1994 c-60 -28 -100 -60 -100 -81 0 -21 17 -15 64 21 24 18 67
39 95 46 67 16 137 0 197 -46 24 -19 49 -34 54 -34 22 0 8 30 -29 59 -83 66
-187 79 -281 35z"/>
<path d="M5128 1497 c-21 -11 -38 -26 -38 -33 0 -6 -6 -14 -14 -17 -20 -8 -28
-65 -12 -88 13 -20 14 -19 46 9 25 23 31 35 25 52 -6 20 -4 22 14 17 13 -3 21
0 21 8 0 21 29 26 39 7 11 -21 -3 -60 -24 -68 -8 -4 -15 -15 -15 -25 0 -25 57
-26 76 -1 20 25 18 98 -2 106 -10 4 -14 14 -11 25 3 13 0 18 -7 15 -7 -3 -23
-1 -37 4 -18 7 -34 4 -61 -11z"/>
<path d="M5098 1088 c-13 -10 -17 -43 -21 -160 -3 -81 -2 -150 2 -152 8 -5
125 -8 159 -4 20 2 22 7 22 68 0 36 -3 94 -6 130 l-6 65 -57 0 c-54 0 -56 1
-66 33 -10 27 -13 30 -27 20z"/>
</g>
</svg>
